<svg width="39" height="34" viewBox="0 0 39 34" fill="none" xmlns="http://www.w3.org/2000/svg">
<path opacity="0.4" d="M22.8559 19H16.5508C16.1158 19 15.7627 19.336 15.7627 19.75V33.25C15.7627 33.664 16.1158 34 16.5508 34H22.8559C23.2909 34 23.644 33.664 23.644 33.25V19.75C23.644 19.336 23.2909 19 22.8559 19Z" fill="white"/>
<path opacity="0.3" d="M7.09317 27H0.78813C0.353082 27 0 27.3136 0 27.7V33.3C0 33.6864 0.353082 34 0.78813 34H7.09317C7.52821 34 7.8813 33.6864 7.8813 33.3V27.7C7.8813 27.3136 7.52821 27 7.09317 27Z" fill="white"/>
<path opacity="0.7" d="M37.4926 12H31.1875C30.7525 12 30.3994 12.3285 30.3994 12.7333V33.2667C30.3994 33.6715 30.7525 34 31.1875 34H37.4926C37.9276 34 38.2807 33.6715 38.2807 33.2667V12.7333C38.2807 12.3285 37.9276 12 37.4926 12Z" fill="white"/>
<path d="M19.5899 11.5317L29.8553 2.50647V7.34173C29.8553 7.74699 30.2294 8.0759 30.6903 8.0759C31.1513 8.0759 31.5254 7.74699 31.5254 7.34173V0.734173C31.5254 0.328909 31.1513 0 30.6903 0H23.1748C22.7138 0 22.3397 0.328909 22.3397 0.734173C22.3397 1.13944 22.7138 1.46835 23.1748 1.46835H28.6745L18.9995 9.97447L12.9093 4.62015C12.5828 4.33309 12.0551 4.33309 11.7286 4.62015L3.37793 11.9619L4.55871 13L12.319 6.17733L18.4091 11.5317C18.7356 11.8187 19.2633 11.8187 19.5899 11.5317Z" fill="white"/>
</svg>
