<svg width="42" height="38" viewBox="0 0 42 38" fill="none" xmlns="http://www.w3.org/2000/svg">
<path d="M19.1399 21C24.8467 21 29.273 15.3558 29.273 10.5V8.88461C29.273 3.98596 24.7269 0 19.1399 0C13.5529 0 9.00684 3.98596 9.00684 8.88461V10.5C9.00684 15.3558 13.4332 21 19.1399 21Z" fill="white"/>
<path opacity="0.5" d="M41.6582 28.736L41.1269 23L39.1842 24.9838C37.8745 23.9353 36.2185 23.3553 34.4503 23.3553C30.4939 23.3553 27.2564 26.2995 27.0215 30H28.7757C29.015 27.2597 31.5135 25.0196 34.4503 25.0196C35.7662 25.0196 36.9987 25.4448 37.9859 26.2087L35.7968 28.4439L41.6582 28.736Z" fill="white"/>
<path opacity="0.5" d="M39.9049 31C39.6655 33.7403 37.1671 35.9804 34.2302 35.9804C32.9144 35.9804 31.6818 35.5552 30.6947 34.7913L32.8837 32.5561L27.0215 32.264L27.5527 38L29.4954 36.0162C30.8051 37.0647 32.4612 37.6447 34.2294 37.6447C38.1857 37.6447 41.4232 34.7005 41.6582 31H39.9049Z" fill="white"/>
<path d="M24.8198 31.2C24.8198 28.6152 26.1086 26.2984 28.1475 24.688C25.6122 24.2936 22.632 24 19.3043 24C13.2804 24 8.34221 24.9504 5.25996 25.748C2.11428 26.5624 0 29.0288 0 31.8848V35.2C0 35.6416 0.410905 36 0.919251 36H24.8198V31.2Z" fill="white"/>
</svg>
