<svg width="144" height="28" viewBox="0 0 144 28" fill="none" xmlns="http://www.w3.org/2000/svg">
<path d="M19.1983 27.5063L10.8633 16.6678C11.9577 16.6681 13.0416 16.4528 14.0528 16.0342C15.064 15.6156 15.9829 15.0019 16.7569 14.2281C17.5309 13.4543 18.1449 12.5356 18.5638 11.5245C18.9827 10.5134 19.1983 9.42966 19.1983 8.33521V27.5063Z" fill="url(#paint0_linear_125_1826)"/>
<path d="M19.1983 8.33506C19.1983 6.12447 18.3201 4.00441 16.757 2.44128C15.1939 0.878153 13.0738 0 10.8632 0H5.18473H0V27.5062H19.1983L10.8632 16.6677C11.9577 16.668 13.0415 16.4527 14.0528 16.0341C15.064 15.6155 15.9829 15.0018 16.7569 14.228C17.5309 13.4542 18.1449 12.5355 18.5638 11.5244C18.9827 10.5133 19.1983 9.42952 19.1983 8.33506Z" fill="url(#paint1_linear_125_1826)"/>
<path d="M44.9959 12.7397C45.7624 11.6177 46.1689 10.2889 46.1612 8.93014C46.1874 7.95146 45.9869 6.97999 45.5753 6.09169C45.1637 5.20339 44.5522 4.42233 43.7886 3.8096C42.2381 2.53564 39.9148 1.88878 36.8756 1.88878H29.3207C29.0659 1.88374 28.8129 1.93235 28.5781 2.03145C28.3433 2.13056 28.132 2.27795 27.9579 2.46404C27.78 2.64454 27.6399 2.85869 27.5458 3.09396C27.4517 3.32924 27.4055 3.58093 27.4098 3.83429V23.7066C27.4048 23.9586 27.4513 24.2091 27.5464 24.4425C27.6415 24.676 27.7832 24.8876 27.9628 25.0645C28.3296 25.4118 28.8156 25.6053 29.3207 25.6053C29.8259 25.6053 30.3118 25.4118 30.6786 25.0645C30.8647 24.8902 31.0122 24.6789 31.1117 24.4442C31.2112 24.2095 31.2605 23.9566 31.2563 23.7017V16.6233H37.5274C38.8902 16.6233 39.9074 16.9467 40.5543 17.5812C41.1947 18.183 41.638 18.9645 41.8258 19.823C42.0203 20.7801 42.1146 21.7548 42.1073 22.7314V23.7066C42.0992 23.96 42.1428 24.2123 42.2353 24.4483C42.3278 24.6843 42.4674 24.899 42.6455 25.0793C42.8312 25.2598 43.0518 25.4007 43.2937 25.4932C43.5357 25.5857 43.7939 25.628 44.0528 25.6175C44.3046 25.6202 44.5544 25.5726 44.7875 25.4775C45.0207 25.3824 45.2326 25.2418 45.4107 25.0639C45.5889 24.8859 45.7298 24.6742 45.8252 24.4412C45.9206 24.2081 45.9685 23.9584 45.9662 23.7066V22.2253C45.9524 20.6323 45.6513 19.0549 45.0773 17.5689C44.6626 16.3667 43.798 15.372 42.6652 14.7938C43.6034 14.3174 44.4054 13.6106 44.9959 12.7397ZM40.8629 11.9002C39.8507 12.5841 38.4434 12.9298 36.683 12.9298H31.2514V5.58228H36.5152C38.6779 5.58228 40.2185 5.90324 41.0703 6.53528C41.9221 7.16733 42.3047 8.00182 42.3047 9.15728C42.3276 9.70101 42.2063 10.2411 41.9531 10.7228C41.6999 11.2046 41.3238 11.6108 40.8629 11.9002Z" fill="#3E7FFF"/>
<path d="M65.6779 21.7932H53.8938L66.7 5.94766C66.8907 5.72757 67.0434 5.47726 67.1518 5.20699C67.2664 4.93738 67.3276 4.64812 67.3321 4.35521C67.3434 3.7166 67.1092 3.098 66.6778 2.62697C66.4525 2.38256 66.177 2.18981 65.8701 2.06196C65.5633 1.9341 65.2324 1.87418 64.9002 1.8863H50.8002C50.5539 1.88242 50.3095 1.9303 50.0828 2.02684C49.8561 2.12338 49.6522 2.26643 49.4843 2.44674C49.3129 2.62038 49.1777 2.82635 49.0866 3.05268C48.9955 3.279 48.9502 3.52118 48.9535 3.76514C48.9518 4.00812 48.9985 4.249 49.0907 4.4738C49.1829 4.6986 49.3189 4.90283 49.4907 5.07465C49.6625 5.24646 49.8667 5.38243 50.0915 5.47466C50.3163 5.56688 50.5572 5.61353 50.8002 5.61189H62.3548L49.3756 21.6352C49.0451 22.0572 48.8706 22.5805 48.8819 23.1165C48.8825 23.7355 49.1289 24.3289 49.5668 24.7664C50.0047 25.2039 50.5984 25.4496 51.2174 25.4496H65.6656C65.906 25.4542 66.1449 25.4111 66.3686 25.323C66.5923 25.2349 66.7964 25.1034 66.9691 24.9361C67.1456 24.7691 67.2853 24.5672 67.3793 24.3431C67.4733 24.1191 67.5194 23.8779 67.5148 23.635C67.5154 23.3921 67.468 23.1514 67.3753 22.9269C67.2826 22.7024 67.1463 22.4985 66.9745 22.3268C66.8026 22.1552 66.5984 22.0192 66.3738 21.9268C66.1492 21.8343 65.9085 21.7873 65.6656 21.7882L65.6779 21.7932Z" fill="#3E7FFF"/>
<path d="M87.3036 2.30361C87.1262 2.48397 86.9865 2.69775 86.8924 2.93255C86.7983 3.16734 86.7518 3.41847 86.7555 3.67139V16.5937C86.7901 17.6742 86.5049 18.7409 85.9358 19.6601C85.4063 20.4798 84.6556 21.1329 83.7706 21.5439C82.8519 21.9636 81.8537 22.1808 80.8437 22.1808C79.8337 22.1808 78.8354 21.9636 77.9167 21.5439C77.0312 21.1326 76.2798 20.4796 75.7491 19.6601C75.1806 18.7407 74.8955 17.6742 74.9294 16.5937V3.67139C74.9324 3.41549 74.8835 3.16163 74.7854 2.92523C74.6874 2.68884 74.5423 2.47483 74.359 2.2962C74.0898 2.02405 73.7453 1.83857 73.3699 1.76356C72.9945 1.68855 72.6052 1.72744 72.2521 1.87523C71.8989 2.02302 71.598 2.27298 71.3879 2.59302C71.1778 2.91306 71.0681 3.28858 71.0729 3.67139V16.4974C71.0729 18.5071 71.5667 20.2378 72.5147 21.6402C73.4359 23.005 74.718 24.0871 76.2181 24.7658C77.672 25.4344 79.2533 25.7805 80.8535 25.7805C82.4537 25.7805 84.035 25.4344 85.4889 24.7658C86.9898 24.0882 88.2722 23.0058 89.1923 21.6402C90.1502 20.2378 90.6341 18.5071 90.6341 16.4974V3.67139C90.6378 3.41541 90.5891 3.16138 90.491 2.9249C90.3929 2.68842 90.2476 2.47447 90.0638 2.2962C89.8837 2.11259 89.6687 1.96686 89.4314 1.86761C89.1941 1.76835 88.9394 1.71758 88.6821 1.71827C88.4249 1.71896 88.1704 1.7711 87.9337 1.87163C87.6969 1.97215 87.4827 2.11903 87.3036 2.30361Z" fill="#3E7FFF"/>
<path d="M119.256 1.72603H118.185C117.662 1.72425 117.153 1.89139 116.733 2.20254C116.318 2.50123 115.991 2.90524 115.785 3.3728L108.832 20.7219L101.875 3.37033C101.668 2.90883 101.343 2.51023 100.932 2.21488C100.512 1.90373 100.003 1.73659 99.4802 1.73838H98.4087C98.0691 1.7349 97.7325 1.80152 97.4198 1.93406C97.1072 2.0666 96.8252 2.26222 96.5916 2.50868C96.3526 2.74796 96.1639 3.03267 96.0367 3.34603C95.9095 3.65939 95.8463 3.99505 95.8509 4.33321V23.7192C95.8464 23.9714 95.8933 24.2218 95.9888 24.4553C96.0843 24.6888 96.2264 24.9003 96.4064 25.0771C96.7732 25.4243 97.2592 25.6179 97.7643 25.6179C98.2694 25.6179 98.7554 25.4243 99.1222 25.0771C99.3076 24.9024 99.4545 24.6909 99.5535 24.4563C99.6526 24.2216 99.7016 23.9689 99.6975 23.7142V7.57984L106.351 23.9784C106.553 24.4656 106.897 24.8805 107.339 25.1684C107.785 25.4589 108.305 25.6135 108.837 25.6135C109.37 25.6135 109.89 25.4589 110.336 25.1684C110.778 24.878 111.123 24.4606 111.324 23.971L117.955 7.57737V23.7043C117.951 23.9592 118 24.2122 118.1 24.4469C118.199 24.6816 118.347 24.8929 118.533 25.0672C118.713 25.245 118.927 25.385 119.161 25.4791C119.396 25.5733 119.648 25.6195 119.901 25.6153C120.152 25.6179 120.402 25.5703 120.635 25.4752C120.869 25.3802 121.08 25.2395 121.259 25.0616C121.437 24.8837 121.578 24.672 121.673 24.4389C121.768 24.2059 121.816 23.9561 121.814 23.7043V4.32087C121.818 3.98274 121.755 3.64716 121.628 3.33384C121.501 3.02052 121.312 2.73578 121.073 2.49633C120.84 2.24915 120.558 2.05306 120.246 1.92046C119.933 1.78787 119.596 1.72166 119.256 1.72603Z" fill="#3E7FFF"/>
<path d="M142.15 21.7934H131.075V15.4878H140.983C141.223 15.492 141.462 15.4485 141.686 15.36C141.91 15.2714 142.114 15.1395 142.286 14.9718C142.463 14.8055 142.602 14.604 142.696 14.3803C142.789 14.1565 142.835 13.9156 142.829 13.6731C142.831 13.43 142.784 13.189 142.692 12.9641C142.6 12.7392 142.464 12.5348 142.292 12.3628C142.12 12.1907 141.916 12.0545 141.691 11.962C141.467 11.8695 141.226 11.8226 140.983 11.8239H131.075V5.55039H142.15C142.391 5.55486 142.63 5.51155 142.854 5.42298C143.078 5.33441 143.282 5.20233 143.454 5.03439C143.631 4.86837 143.771 4.66692 143.865 4.44317C143.959 4.21942 144.005 3.97837 144 3.73573C144 3.49282 143.953 3.25219 143.86 3.02767C143.767 2.80316 143.631 2.5992 143.459 2.42755C143.287 2.2559 143.083 2.11995 142.859 2.02752C142.634 1.93509 142.393 1.88801 142.15 1.88898H129.129C128.874 1.88425 128.621 1.93325 128.386 2.03278C128.152 2.13232 127.94 2.28017 127.766 2.46671C127.588 2.64658 127.448 2.86027 127.354 3.09518C127.26 3.33009 127.214 3.58147 127.218 3.83449V23.5439C127.215 23.7956 127.263 24.0455 127.358 24.2787C127.453 24.5118 127.593 24.7237 127.771 24.9017C127.949 25.0798 128.161 25.2204 128.394 25.3154C128.628 25.4104 128.877 25.4578 129.129 25.4548H142.15C142.391 25.4592 142.63 25.4161 142.853 25.328C143.077 25.2398 143.281 25.1084 143.454 24.9413C143.63 24.7743 143.77 24.5723 143.864 24.3483C143.958 24.1242 144.004 23.883 144 23.6401C144 23.3972 143.953 23.1566 143.86 22.9321C143.767 22.7076 143.631 22.5036 143.459 22.332C143.287 22.1603 143.083 22.0244 142.859 21.9319C142.634 21.8395 142.393 21.7924 142.15 21.7934Z" fill="#3E7FFF"/>
<defs>
<linearGradient id="paint0_linear_125_1826" x1="21.0723" y1="18.48" x2="11.8064" y2="15.7321" gradientUnits="userSpaceOnUse">
<stop offset="0.24" stop-color="#E37F25"/>
<stop offset="0.8" stop-color="#FDC24B"/>
</linearGradient>
<linearGradient id="paint1_linear_125_1826" x1="20.1513" y1="17.9416" x2="-1.79243" y2="11.4336" gradientUnits="userSpaceOnUse">
<stop offset="0.17" stop-color="#003268"/>
<stop offset="0.8" stop-color="#007AFF"/>
</linearGradient>
</defs>
</svg>
