<svg width="193" height="37" viewBox="0 0 193 37" fill="none" xmlns="http://www.w3.org/2000/svg">
<path d="M25.7309 36.8663L14.5596 22.3396C16.0265 22.3401 17.4791 22.0515 18.8344 21.4905C20.1898 20.9294 21.4213 20.1069 22.4587 19.0698C23.4961 18.0327 24.319 16.8014 24.8804 15.4462C25.4419 14.091 25.7309 12.6385 25.7309 11.1716V36.8663Z" fill="url(#paint0_linear_715_1353)"/>
<path d="M25.7311 11.1713C25.7311 8.20849 24.5541 5.36702 22.4591 3.27199C20.364 1.17697 17.5226 0 14.5598 0H6.94897H0V36.866H25.7311L14.5598 22.3393C16.0266 22.3397 17.4793 22.0512 18.8346 21.4901C20.1899 20.9291 21.4215 20.1065 22.4589 19.0694C23.4963 18.0323 24.3192 16.8011 24.8806 15.4459C25.4421 14.0907 25.7311 12.6382 25.7311 11.1713Z" fill="url(#paint1_linear_715_1353)"/>
<path d="M60.3071 17.0742C61.3344 15.5705 61.8792 13.7895 61.8689 11.9684C61.904 10.6567 61.6352 9.35463 61.0836 8.16405C60.5319 6.97348 59.7124 5.92665 58.6889 5.10542C56.6109 3.39796 53.4971 2.53099 49.4236 2.53099H39.298C38.9565 2.52423 38.6174 2.58938 38.3027 2.72221C37.988 2.85504 37.7048 3.05258 37.4714 3.302C37.233 3.54392 37.0453 3.83093 36.9191 4.14627C36.793 4.46161 36.731 4.79894 36.7368 5.13852V31.7729C36.7301 32.1108 36.7924 32.4464 36.9199 32.7593C37.0473 33.0722 37.2372 33.3559 37.478 33.5929C37.9697 34.0584 38.621 34.3178 39.298 34.3178C39.975 34.3178 40.6263 34.0584 41.118 33.5929C41.3673 33.3593 41.565 33.0761 41.6984 32.7615C41.8317 32.447 41.8978 32.108 41.8923 31.7663V22.2793H50.2972C52.1238 22.2793 53.4871 22.7128 54.3541 23.5632C55.2124 24.3698 55.8066 25.4172 56.0583 26.5678C56.3189 27.8506 56.4454 29.157 56.4355 30.4659V31.7729C56.4247 32.1125 56.4831 32.4507 56.6071 32.767C56.7311 33.0833 56.9181 33.371 57.1569 33.6128C57.4058 33.8547 57.7015 34.0434 58.0257 34.1675C58.35 34.2915 58.6961 34.3482 59.043 34.3341C59.3805 34.3377 59.7153 34.2739 60.0278 34.1464C60.3403 34.019 60.6243 33.8306 60.8631 33.5921C61.1019 33.3536 61.2908 33.0698 61.4186 32.7575C61.5464 32.4451 61.6106 32.1104 61.6075 31.7729V29.7875C61.589 27.6525 61.1855 25.5384 60.4162 23.5467C59.8603 21.9354 58.7016 20.6022 57.1834 19.8273C58.4408 19.1888 59.5156 18.2415 60.3071 17.0742ZM54.7677 15.9491C53.411 16.8657 51.5249 17.329 49.1655 17.329H41.8856V7.48131H48.9405C51.8393 7.48131 53.9041 7.91148 55.0457 8.7586C56.1873 9.60571 56.7002 10.7242 56.7002 12.2728C56.7308 13.0016 56.5682 13.7255 56.2289 14.3711C55.8895 15.0167 55.3854 15.5612 54.7677 15.9491Z" fill="white"/>
<path d="M88.0267 29.2087H72.2327L89.3967 7.97129C89.6522 7.67631 89.8569 7.34082 90.0022 6.97858C90.1557 6.61723 90.2378 6.22954 90.2437 5.83697C90.2589 4.98105 89.945 4.15195 89.3669 3.52064C89.0649 3.19306 88.6956 2.93472 88.2843 2.76336C87.8731 2.59201 87.4296 2.51169 86.9844 2.52793H68.0865C67.7563 2.52274 67.4287 2.58691 67.1249 2.7163C66.8211 2.84569 66.5478 3.03742 66.3228 3.27908C66.093 3.51181 65.9119 3.78786 65.7897 4.0912C65.6676 4.39455 65.6069 4.71913 65.6113 5.04611C65.6091 5.37176 65.6716 5.69461 65.7952 5.9959C65.9188 6.2972 66.1011 6.57093 66.3314 6.80121C66.5616 7.03149 66.8354 7.21372 67.1366 7.33733C67.4379 7.46094 67.7608 7.52346 68.0865 7.52126H83.5728L66.1771 28.9969C65.7341 29.5625 65.5003 30.264 65.5153 30.9823C65.5162 31.812 65.8464 32.6073 66.4334 33.1937C67.0203 33.78 67.816 34.1094 68.6457 34.1094H88.0101C88.3324 34.1154 88.6526 34.0577 88.9524 33.9396C89.2523 33.8215 89.5258 33.6453 89.7573 33.4211C89.9939 33.1973 90.1811 32.9266 90.307 32.6263C90.433 32.326 90.4948 32.0028 90.4886 31.6772C90.4895 31.3516 90.426 31.0291 90.3017 30.7282C90.1774 30.4273 89.9948 30.1539 89.7644 29.9239C89.5341 29.6938 89.2605 29.5116 88.9594 29.3877C88.6583 29.2638 88.3357 29.2008 88.0101 29.2021L88.0267 29.2087Z" fill="white"/>
<path d="M117.011 3.08726C116.773 3.329 116.586 3.61553 116.46 3.93021C116.333 4.2449 116.271 4.58149 116.276 4.92047V22.24C116.322 23.6882 115.94 25.1179 115.177 26.3498C114.468 27.4484 113.462 28.3237 112.275 28.8746C111.044 29.4371 109.706 29.7282 108.353 29.7282C106.999 29.7282 105.661 29.4371 104.43 28.8746C103.243 28.3233 102.236 27.4482 101.524 26.3498C100.762 25.1175 100.38 23.6881 100.426 22.24V4.92047C100.43 4.57749 100.364 4.23725 100.233 3.92041C100.101 3.60357 99.907 3.31674 99.6614 3.07733C99.3005 2.71257 98.8388 2.46398 98.3357 2.36345C97.8325 2.26291 97.3108 2.31503 96.8374 2.51311C96.3641 2.7112 95.9607 3.04621 95.6792 3.47515C95.3976 3.90409 95.2506 4.4074 95.257 4.92047V22.1109C95.257 24.8045 95.9188 27.1241 97.1895 29.0036C98.424 30.8328 100.142 32.2832 102.153 33.1929C104.102 34.0889 106.221 34.5528 108.366 34.5528C110.511 34.5528 112.63 34.0889 114.579 33.1929C116.59 32.2847 118.309 30.834 119.542 29.0036C120.826 27.1241 121.475 24.8045 121.475 22.1109V4.92047C121.479 4.57738 121.414 4.23691 121.283 3.91996C121.151 3.60301 120.956 3.31627 120.71 3.07733C120.469 2.83124 120.181 2.63593 119.862 2.5029C119.544 2.36987 119.203 2.30182 118.858 2.30274C118.514 2.30367 118.172 2.37355 117.855 2.50829C117.538 2.64302 117.251 2.83987 117.011 3.08726Z" fill="white"/>
<path d="M159.837 2.31277H158.401C157.7 2.31038 157.018 2.53439 156.455 2.95142C155.899 3.35175 155.461 3.89324 155.184 4.5199L145.866 27.7725L136.541 4.51659C136.264 3.89805 135.828 3.36381 135.277 2.96796C134.714 2.55093 134.032 2.32693 133.332 2.32932H131.895C131.44 2.32466 130.989 2.41394 130.57 2.59158C130.151 2.76923 129.773 3.03141 129.46 3.36174C129.14 3.68243 128.887 4.06403 128.716 4.48402C128.546 4.90401 128.461 5.35388 128.467 5.80711V31.7897C128.461 32.1277 128.524 32.4634 128.652 32.7763C128.78 33.0892 128.971 33.3728 129.212 33.6096C129.703 34.0751 130.355 34.3345 131.032 34.3345C131.709 34.3345 132.36 34.0751 132.852 33.6096C133.1 33.3755 133.297 33.0921 133.43 32.7776C133.562 32.4631 133.628 32.1244 133.623 31.783V10.1585L142.541 32.1371C142.811 32.7902 143.272 33.3462 143.864 33.7321C144.462 34.1214 145.16 34.3286 145.873 34.3286C146.586 34.3286 147.284 34.1214 147.881 33.7321C148.474 33.3428 148.936 32.7834 149.205 32.1272L158.093 10.1552V31.7698C158.087 32.1114 158.154 32.4504 158.287 32.765C158.42 33.0796 158.618 33.3628 158.867 33.5964C159.109 33.8347 159.395 34.0224 159.71 34.1485C160.025 34.2747 160.361 34.3367 160.701 34.331C161.038 34.3345 161.373 34.2707 161.685 34.1433C161.998 34.0159 162.282 33.8274 162.521 33.5889C162.759 33.3504 162.948 33.0667 163.076 32.7544C163.204 32.442 163.268 32.1073 163.265 31.7698V5.79057C163.271 5.33739 163.186 4.88762 163.015 4.46768C162.845 4.04775 162.592 3.66611 162.272 3.34519C161.96 3.0139 161.582 2.75108 161.163 2.57336C160.744 2.39565 160.292 2.30691 159.837 2.31277Z" fill="white"/>
<path d="M190.521 29.2089H175.677V20.7576H188.956C189.279 20.7632 189.599 20.705 189.899 20.5863C190.199 20.4676 190.472 20.2908 190.703 20.066C190.94 19.8432 191.127 19.5731 191.253 19.2732C191.378 18.9733 191.439 18.6504 191.431 18.3254C191.433 17.9996 191.371 17.6766 191.247 17.3752C191.124 17.0737 190.942 16.7997 190.711 16.5692C190.481 16.3386 190.207 16.1561 189.906 16.0321C189.605 15.9082 189.282 15.8452 188.956 15.847H175.677V7.43872H190.521C190.844 7.44471 191.164 7.38667 191.464 7.26796C191.764 7.14925 192.037 6.97223 192.268 6.74714C192.506 6.52463 192.693 6.25463 192.819 5.95474C192.945 5.65485 193.007 5.33179 193 5.00658C193.001 4.68102 192.937 4.35849 192.813 4.05758C192.688 3.75667 192.506 3.48331 192.276 3.25326C192.045 3.0232 191.772 2.84098 191.471 2.7171C191.169 2.59322 190.847 2.53011 190.521 2.53142H173.069C172.728 2.52508 172.388 2.59075 172.074 2.72416C171.759 2.85756 171.476 3.05572 171.243 3.30574C171.004 3.54682 170.816 3.83322 170.69 4.14806C170.564 4.46291 170.502 4.79982 170.508 5.13895V31.555C170.504 31.8924 170.568 32.2273 170.695 32.5398C170.822 32.8523 171.011 33.1363 171.249 33.3749C171.488 33.6135 171.772 33.802 172.085 33.9293C172.397 34.0566 172.732 34.1202 173.069 34.1162H190.521C190.843 34.1221 191.164 34.0643 191.463 33.9462C191.763 33.8281 192.037 33.6519 192.268 33.4279C192.505 33.2041 192.692 32.9334 192.818 32.6331C192.944 32.3328 193.006 32.0096 193 31.684C193.001 31.3585 192.937 31.0359 192.813 30.735C192.688 30.4341 192.506 30.1608 192.276 29.9307C192.045 29.7006 191.772 29.5184 191.471 29.3945C191.169 29.2707 190.847 29.2076 190.521 29.2089Z" fill="white"/>
<defs>
<linearGradient id="paint0_linear_715_1353" x1="28.2424" y1="24.7685" x2="15.8236" y2="21.0855" gradientUnits="userSpaceOnUse">
<stop offset="0.24" stop-color="#E37F25"/>
<stop offset="0.8" stop-color="#FDC24B"/>
</linearGradient>
<linearGradient id="paint1_linear_715_1353" x1="27.0084" y1="24.0468" x2="-2.40236" y2="15.3241" gradientUnits="userSpaceOnUse">
<stop offset="0.17" stop-color="#C3C3C3"/>
<stop offset="0.8" stop-color="white"/>
</linearGradient>
</defs>
</svg>
