<svg width="144" height="28" viewBox="0 0 144 28" fill="none" xmlns="http://www.w3.org/2000/svg">
<path d="M19.1983 27.5063L10.8633 16.6678C11.9577 16.6681 13.0416 16.4528 14.0528 16.0342C15.064 15.6156 15.9829 15.0019 16.7569 14.2281C17.5309 13.4543 18.1449 12.5356 18.5638 11.5245C18.9827 10.5134 19.1983 9.42966 19.1983 8.33521V27.5063Z" fill="url(#paint0_linear_740_2923)"/>
<path d="M19.1983 8.33506C19.1983 6.12447 18.3201 4.00441 16.757 2.44128C15.1939 0.878153 13.0738 0 10.8632 0H5.18473H0V27.5062H19.1983L10.8632 16.6677C11.9577 16.668 13.0415 16.4527 14.0528 16.0341C15.064 15.6155 15.9829 15.0018 16.7569 14.228C17.5309 13.4542 18.1449 12.5355 18.5638 11.5244C18.9827 10.5133 19.1983 9.42952 19.1983 8.33506Z" fill="url(#paint1_linear_740_2923)"/>
<path d="M44.9956 12.7397C45.7622 11.6177 46.1686 10.2889 46.161 8.93014C46.1871 7.95146 45.9866 6.97999 45.575 6.09169C45.1634 5.20339 44.5519 4.42233 43.7883 3.8096C42.2378 2.53564 39.9146 1.88878 36.8754 1.88878H29.3205C29.0657 1.88374 28.8127 1.93235 28.5779 2.03145C28.3431 2.13056 28.1318 2.27795 27.9576 2.46404C27.7798 2.64454 27.6397 2.85869 27.5456 3.09396C27.4515 3.32924 27.4052 3.58093 27.4095 3.83429V23.7066C27.4046 23.9586 27.451 24.2091 27.5461 24.4425C27.6412 24.676 27.7829 24.8876 27.9626 25.0645C28.3294 25.4118 28.8153 25.6053 29.3205 25.6053C29.8256 25.6053 30.3116 25.4118 30.6784 25.0645C30.8644 24.8902 31.0119 24.6789 31.1114 24.4442C31.2109 24.2095 31.2602 23.9566 31.2561 23.7017V16.6233H37.5272C38.89 16.6233 39.9072 16.9467 40.5541 17.5812C41.1945 18.183 41.6377 18.9645 41.8256 19.823C42.02 20.7801 42.1144 21.7548 42.107 22.7314V23.7066C42.0989 23.96 42.1425 24.2123 42.235 24.4483C42.3276 24.6843 42.4671 24.899 42.6452 25.0793C42.831 25.2598 43.0515 25.4007 43.2935 25.4932C43.5354 25.5857 43.7937 25.628 44.0525 25.6175C44.3043 25.6202 44.5541 25.5726 44.7873 25.4775C45.0205 25.3824 45.2323 25.2418 45.4105 25.0639C45.5887 24.8859 45.7296 24.6742 45.8249 24.4412C45.9203 24.2081 45.9682 23.9584 45.9659 23.7066V22.2253C45.9521 20.6323 45.651 19.0549 45.0771 17.5689C44.6623 16.3667 43.7977 15.372 42.665 14.7938C43.6032 14.3174 44.4051 13.6106 44.9956 12.7397ZM40.8627 11.9002C39.8504 12.5841 38.4431 12.9298 36.6828 12.9298H31.2512V5.58228H36.5149C38.6777 5.58228 40.2183 5.90324 41.07 6.53528C41.9218 7.16733 42.3045 8.00182 42.3045 9.15728C42.3274 9.70101 42.206 10.2411 41.9528 10.7228C41.6996 11.2046 41.3235 11.6108 40.8627 11.9002Z" fill="#231F20"/>
<path d="M65.6774 21.7933H53.8933L66.6996 5.94779C66.8902 5.7277 67.0429 5.47738 67.1514 5.20711C67.2659 4.9375 67.3271 4.64824 67.3316 4.35534C67.3429 3.71672 67.1087 3.09812 66.6773 2.62709C66.452 2.38268 66.1765 2.18993 65.8696 2.06208C65.5628 1.93423 65.2319 1.8743 64.8997 1.88642H50.7997C50.5534 1.88254 50.309 1.93042 50.0823 2.02696C49.8556 2.12351 49.6517 2.26655 49.4838 2.44686C49.3124 2.6205 49.1772 2.82647 49.0861 3.0528C48.995 3.27913 48.9497 3.5213 48.953 3.76526C48.9513 4.00824 48.998 4.24912 49.0902 4.47392C49.1824 4.69872 49.3184 4.90296 49.4902 5.07477C49.662 5.24658 49.8663 5.38255 50.0911 5.47478C50.3159 5.56701 50.5567 5.61365 50.7997 5.61201H62.3543L49.3752 21.6353C49.0446 22.0573 48.8701 22.5807 48.8814 23.1166C48.882 23.7356 49.1284 24.3291 49.5663 24.7665C50.0043 25.204 50.5979 25.4498 51.217 25.4498H65.6651C65.9055 25.4543 66.1444 25.4112 66.3681 25.3231C66.5918 25.235 66.7959 25.1035 66.9687 24.9362C67.1451 24.7693 67.2849 24.5673 67.3788 24.3433C67.4728 24.1192 67.5189 23.878 67.5143 23.6351C67.5149 23.3922 67.4675 23.1516 67.3748 22.927C67.2821 22.7025 67.1458 22.4986 66.974 22.3269C66.8021 22.1553 66.5979 22.0193 66.3733 21.9269C66.1487 21.8345 65.908 21.7874 65.6651 21.7884L65.6774 21.7933Z" fill="#231F20"/>
<path d="M87.3031 2.30349C87.1257 2.48385 86.986 2.69763 86.8919 2.93242C86.7978 3.16722 86.7513 3.41835 86.755 3.67127V16.5936C86.7896 17.6741 86.5045 18.7408 85.9353 19.66C85.4058 20.4797 84.6551 21.1328 83.7701 21.5438C82.8514 21.9634 81.8532 22.1807 80.8432 22.1807C79.8332 22.1807 78.8349 21.9634 77.9162 21.5438C77.0307 21.1325 76.2793 20.4795 75.7486 19.66C75.1801 18.7405 74.895 17.674 74.9289 16.5936V3.67127C74.9319 3.41537 74.883 3.16151 74.7849 2.92511C74.6869 2.68871 74.5418 2.4747 74.3586 2.29608C74.0893 2.02393 73.7448 1.83845 73.3694 1.76344C72.994 1.68843 72.6047 1.72731 72.2516 1.87511C71.8984 2.0229 71.5975 2.27286 71.3874 2.5929C71.1773 2.91293 71.0676 3.28846 71.0724 3.67127V16.4973C71.0724 18.507 71.5662 20.2377 72.5143 21.64C73.4354 23.0048 74.7175 24.087 76.2176 24.7657C77.6715 25.4342 79.2528 25.7804 80.853 25.7804C82.4533 25.7804 84.0345 25.4342 85.4884 24.7657C86.9893 24.0881 88.2717 23.0057 89.1918 21.64C90.1497 20.2377 90.6336 18.507 90.6336 16.4973V3.67127C90.6373 3.41528 90.5886 3.16126 90.4905 2.92478C90.3924 2.6883 90.2471 2.47435 90.0633 2.29608C89.8832 2.11246 89.6682 1.96674 89.4309 1.86748C89.1936 1.76823 88.9389 1.71746 88.6817 1.71815C88.4244 1.71884 88.17 1.77098 87.9332 1.8715C87.6965 1.97203 87.4822 2.11891 87.3031 2.30349Z" fill="#231F20"/>
<path d="M119.256 1.72591H118.185C117.662 1.72413 117.153 1.89127 116.733 2.20241C116.318 2.50111 115.991 2.90512 115.785 3.37268L108.832 20.7218L101.875 3.37021C101.668 2.90871 101.343 2.51011 100.932 2.21476C100.512 1.90361 100.003 1.73647 99.4802 1.73826H98.4087C98.0691 1.73478 97.7325 1.80139 97.4198 1.93394C97.1072 2.06648 96.8252 2.26209 96.5916 2.50856C96.3526 2.74783 96.1639 3.03255 96.0367 3.34591C95.9095 3.65927 95.8463 3.99492 95.8509 4.33309V23.719C95.8464 23.9712 95.8933 24.2217 95.9888 24.4552C96.0843 24.6886 96.2264 24.9002 96.4064 25.0769C96.7732 25.4242 97.2592 25.6178 97.7643 25.6178C98.2694 25.6178 98.7554 25.4242 99.1222 25.0769C99.3076 24.9022 99.4545 24.6908 99.5535 24.4562C99.6526 24.2215 99.7016 23.9688 99.6975 23.7141V7.57972L106.351 23.9783C106.553 24.4655 106.897 24.8804 107.339 25.1683C107.785 25.4587 108.305 25.6134 108.837 25.6134C109.37 25.6134 109.89 25.4587 110.336 25.1683C110.778 24.8778 111.123 24.4604 111.324 23.9709L117.955 7.57724V23.7042C117.951 23.9591 118 24.212 118.1 24.4468C118.199 24.6815 118.347 24.8928 118.533 25.0671C118.713 25.2448 118.927 25.3849 119.161 25.479C119.396 25.5731 119.648 25.6194 119.901 25.6152C120.152 25.6178 120.402 25.5702 120.635 25.4751C120.869 25.38 121.08 25.2394 121.259 25.0615C121.437 24.8835 121.578 24.6718 121.673 24.4388C121.768 24.2057 121.816 23.956 121.814 23.7042V4.32075C121.818 3.98262 121.755 3.64704 121.628 3.33372C121.501 3.0204 121.312 2.73565 121.073 2.49621C120.84 2.24903 120.558 2.05294 120.246 1.92034C119.933 1.78774 119.596 1.72154 119.256 1.72591Z" fill="#231F20"/>
<path d="M142.15 21.7933H131.075V15.4877H140.982C141.223 15.4919 141.462 15.4484 141.686 15.3599C141.909 15.2713 142.113 15.1394 142.286 14.9717C142.462 14.8054 142.602 14.6039 142.696 14.3801C142.789 14.1564 142.835 13.9155 142.829 13.673C142.831 13.4299 142.784 13.1889 142.692 12.964C142.6 12.739 142.464 12.5346 142.292 12.3626C142.12 12.1906 141.916 12.0544 141.691 11.9619C141.466 11.8694 141.225 11.8225 140.982 11.8238H131.075V5.55027H142.15C142.391 5.55474 142.63 5.51143 142.854 5.42286C143.077 5.33429 143.281 5.2022 143.454 5.03426C143.631 4.86825 143.771 4.6668 143.865 4.44305C143.959 4.2193 144.005 3.97825 143.999 3.73561C144 3.4927 143.953 3.25206 143.86 3.02755C143.767 2.80304 143.631 2.59908 143.459 2.42743C143.287 2.25578 143.083 2.11983 142.858 2.0274C142.634 1.93497 142.393 1.88788 142.15 1.88886H129.129C128.874 1.88413 128.621 1.93313 128.386 2.03266C128.151 2.1322 127.94 2.28005 127.766 2.46659C127.588 2.64646 127.448 2.86015 127.354 3.09506C127.26 3.32997 127.214 3.58134 127.218 3.83437V23.5437C127.215 23.7955 127.262 24.0453 127.357 24.2785C127.452 24.5117 127.593 24.7236 127.771 24.9016C127.949 25.0797 128.161 25.2203 128.394 25.3153C128.627 25.4103 128.877 25.4577 129.129 25.4547H142.15C142.39 25.4591 142.629 25.416 142.853 25.3278C143.077 25.2397 143.281 25.1083 143.454 24.9411C143.63 24.7742 143.77 24.5722 143.864 24.3482C143.958 24.1241 144.004 23.8829 143.999 23.64C144 23.3971 143.953 23.1565 143.86 22.932C143.767 22.7074 143.631 22.5035 143.459 22.3318C143.287 22.1602 143.083 22.0242 142.858 21.9318C142.634 21.8394 142.393 21.7923 142.15 21.7933Z" fill="#231F20"/>
<defs>
<linearGradient id="paint0_linear_740_2923" x1="21.0723" y1="18.48" x2="11.8064" y2="15.7321" gradientUnits="userSpaceOnUse">
<stop offset="0.24" stop-color="#E37F25"/>
<stop offset="0.8" stop-color="#FDC24B"/>
</linearGradient>
<linearGradient id="paint1_linear_740_2923" x1="20.1513" y1="17.9416" x2="-1.79243" y2="11.4336" gradientUnits="userSpaceOnUse">
<stop offset="0.17" stop-color="#003268"/>
<stop offset="0.8" stop-color="#007AFF"/>
</linearGradient>
</defs>
</svg>
